<svg width="67" height="67" viewBox="0 0 67 67" fill="none" xmlns="http://www.w3.org/2000/svg">
<path d="M33.5 0C15 0 0 15 0 33.5C0 52 15 67 33.5 67C52 67 67 52 67 33.5C67 15 52 0 33.5 0ZM50.99 50.43C50.84 50.48 50.69 50.5 50.54 50.5C49.9 50.5 49.31 50.09 49.11 49.45C46.96 42.6 40.68 38 33.5 38C26.32 38 20.04 42.6 17.89 49.45C17.64 50.24 16.8 50.68 16.01 50.43C15.22 50.18 14.78 49.34 15.03 48.55C17.58 40.45 25 35 33.5 35C42 35 49.42 40.45 51.97 48.55C52.22 49.34 51.78 50.18 50.99 50.43Z" fill="black"/>
</svg>
